<svg width="13" height="13" viewBox="0 0 13 13" fill="none" xmlns="http://www.w3.org/2000/svg">
<path d="M7.75 0.875V2.125H9.99375L3.85 8.26875L4.73125 9.15L10.875 3.00625V5.25H12.125V0.875H7.75ZM10.875 10.875H2.125V2.125H6.5V0.875H2.125C1.79348 0.875 1.47554 1.0067 1.24112 1.24112C1.0067 1.47554 0.875 1.79348 0.875 2.125V10.875C0.875 11.2065 1.0067 11.5245 1.24112 11.7589C1.47554 11.9933 1.79348 12.125 2.125 12.125H10.875C11.2065 12.125 11.5245 11.9933 11.7589 11.7589C11.9933 11.5245 12.125 11.2065 12.125 10.875V6.5H10.875V10.875Z" fill="#000000"/>
</svg>
